<?xml version="1.0" encoding="utf-8"?>
<!-- Generator: Adobe Illustrator 23.0.4, SVG Export Plug-In . SVG Version: 6.00 Build 0)  -->
<svg version="1.1" id="Groupe_4" xmlns="http://www.w3.org/2000/svg" xmlns:xlink="http://www.w3.org/1999/xlink" x="0px" y="0px"
	 viewBox="0 0 118.4 149.8" style="enable-background:new 0 0 118.4 149.8;" xml:space="preserve">
<style type="text/css">
	.st0{enable-background:new    ;}
	.st1{fill:#121A47;}
	.st2{fill:#FFFFFF;}
	.st3{fill:#2EC086;}
</style>
<g id="Groupe_3" transform="translate(0 0)">
	<g class="st0">
		<path class="st1" d="M13.8,72.7V47.8h10.6v3.4h-7.1v7.6h6.2v3.4h-6.2v10.6H13.8z"/>
		<path class="st1" d="M26.7,72.7V47.8h10.6v3.4h-7.1v7.3h6.2v3.4h-6.2v7.3h7.1v3.6H26.7z"/>
		<path class="st1" d="M51.2,55h-3.6v-0.8c0-0.8-0.2-1.5-0.6-2.1c-0.4-0.6-1-0.9-1.9-0.9c-0.5,0-0.9,0.1-1.2,0.3
			c-0.3,0.2-0.5,0.4-0.7,0.7c-0.2,0.3-0.3,0.6-0.4,1c-0.1,0.4-0.1,0.8-0.1,1.2c0,0.5,0,0.9,0.1,1.2c0,0.3,0.1,0.6,0.3,0.9
			c0.1,0.3,0.3,0.5,0.6,0.7c0.3,0.2,0.6,0.4,1.1,0.6l2.7,1.1c0.8,0.3,1.4,0.7,1.9,1.1c0.5,0.4,0.9,0.9,1.2,1.4
			c0.3,0.6,0.4,1.2,0.5,1.9s0.1,1.5,0.1,2.4c0,1.1-0.1,2-0.3,2.9c-0.2,0.9-0.5,1.7-1,2.3c-0.5,0.7-1.1,1.2-1.9,1.5
			c-0.8,0.4-1.8,0.6-2.9,0.6c-0.9,0-1.7-0.2-2.4-0.5s-1.4-0.7-1.9-1.3c-0.5-0.5-1-1.2-1.3-1.9C39.1,68.6,39,67.9,39,67v-1.3h3.6v1.1
			c0,0.7,0.2,1.2,0.6,1.8c0.4,0.5,1,0.8,1.9,0.8c0.6,0,1.1-0.1,1.4-0.3c0.3-0.2,0.6-0.4,0.8-0.8c0.2-0.3,0.3-0.7,0.3-1.2
			s0.1-1,0.1-1.5c0-0.7,0-1.2-0.1-1.6s-0.1-0.8-0.3-1c-0.2-0.3-0.4-0.5-0.6-0.6c-0.3-0.2-0.6-0.3-1.1-0.5L43,60.8
			c-1.5-0.6-2.6-1.5-3.1-2.5s-0.8-2.3-0.8-3.9c0-0.9,0.1-1.8,0.4-2.7c0.3-0.8,0.6-1.6,1.2-2.2c0.5-0.6,1.1-1.1,1.9-1.5
			c0.8-0.4,1.7-0.5,2.7-0.5c0.9,0,1.7,0.2,2.4,0.5s1.4,0.8,1.9,1.3c1.1,1.1,1.6,2.4,1.6,3.8V55z"/>
		<path class="st1" d="M56.2,72.7V51.2h-4.1v-3.4h11.8v3.4h-4.1v21.6H56.2z"/>
		<path class="st1" d="M65.6,72.7V47.8h3.6v24.9H65.6z"/>
		<path class="st1" d="M84.7,47.8l-5.1,24.9h-3.2l-5.1-24.9h3.8L78,65.2h0.1L81,47.8H84.7z"/>
		<path class="st1" d="M84,72.7l5.6-24.9h3l5.6,24.9h-3.6l-1-5.4h-4.9l-1,5.4H84z M92.8,64L91,55H91l-1.8,9H92.8z"/>
		<path class="st1" d="M99.8,72.7V47.8h3.6v21.3h7.1v3.6H99.8z"/>
	</g>
	<g class="st0">
		<path class="st1" d="M13.8,139.8v-23.5h5c0.9,0,1.7,0.1,2.4,0.4c0.7,0.2,1.3,0.7,1.9,1.3s1,1.3,1.2,2.2s0.3,1.9,0.3,3.3
			c0,1.1-0.1,1.9-0.2,2.7c-0.1,0.7-0.4,1.4-0.8,2c-0.5,0.8-1.1,1.4-1.8,1.8c-0.8,0.4-1.8,0.6-3,0.6h-1.7v9.2H13.8z M17.1,119.5v8
			h1.6c0.7,0,1.2-0.1,1.6-0.3c0.4-0.2,0.6-0.5,0.8-0.8c0.2-0.3,0.3-0.7,0.3-1.2c0-0.5,0-1,0-1.6c0-0.5,0-1.1,0-1.6
			c0-0.5-0.1-0.9-0.3-1.3s-0.4-0.7-0.8-0.9c-0.4-0.2-0.9-0.3-1.5-0.3H17.1z"/>
		<path class="st1" d="M27.2,139.8v-23.5h3.4v20.1h6.7v3.4H27.2z"/>
		<path class="st1" d="M39.4,139.8v-23.5h10v3.2h-6.7v6.9h5.8v3.2h-5.8v6.9h6.7v3.4H39.4z"/>
		<path class="st1" d="M51.7,139.8v-23.5h3.4v23.5H51.7z"/>
		<path class="st1" d="M58.2,139.8v-23.5h3.2l5.1,14.2h0.1v-14.2H70v23.5h-3.2l-5.1-14.1h-0.1v14.1H58.2z"/>
		<path class="st1" d="M77.6,139.8l5.2-23.5h2.8l5.2,23.5h-3.4l-1-5H82l-1,5H77.6z M85.9,131.6l-1.7-8.5h-0.1l-1.7,8.5H85.9z"/>
		<path class="st1" d="M92.7,139.8v-23.5H96v23.5H92.7z"/>
		<path class="st1" d="M99.3,139.8v-23.5h5.4c4,0,5.9,2.3,5.9,6.9c0,1.4-0.2,2.6-0.6,3.5c-0.4,1-1.2,1.7-2.3,2.3l3.6,10.7h-3.6
			l-3.1-10h-2v10H99.3z M102.7,119.5v7.3h1.9c0.6,0,1.1-0.1,1.4-0.2c0.4-0.2,0.6-0.4,0.8-0.7c0.2-0.3,0.3-0.7,0.4-1.1
			c0.1-0.5,0.1-1,0.1-1.6s0-1.1-0.1-1.6c-0.1-0.5-0.2-0.8-0.4-1.2c-0.4-0.6-1.2-0.9-2.4-0.9H102.7z"/>
	</g>
	<g id="Rectangle_401">
		<rect x="13.8" y="78.3" class="st1" width="99.9" height="3.7"/>
	</g>
	<g id="Rectangle_402">
		<rect x="13.8" y="108.4" class="st1" width="99.9" height="3.7"/>
	</g>
	<g id="Rectangle_403">
		<rect x="29.5" y="76.8" class="st2" width="73.9" height="27.7"/>
	</g>
	<g class="st0">
		<path class="st1" d="M13.6,102.8v-9.3H15v7.9h2.6v1.3H13.6z"/>
		<path class="st1" d="M18.5,102.8v-9.3h4v1.2h-2.6v2.7h2.3v1.2h-2.3v2.7h2.6v1.3H18.5z"/>
		<path class="st1" d="M27.6,96.2h-1.3v-0.3c0-0.3-0.1-0.6-0.2-0.8c-0.1-0.2-0.4-0.3-0.7-0.3c-0.2,0-0.3,0-0.4,0.1s-0.2,0.2-0.3,0.3
			c-0.1,0.1-0.1,0.2-0.1,0.4c0,0.1,0,0.3,0,0.4c0,0.2,0,0.3,0,0.5c0,0.1,0,0.2,0.1,0.3c0.1,0.1,0.1,0.2,0.2,0.2s0.2,0.1,0.4,0.2
			l1,0.4c0.3,0.1,0.5,0.2,0.7,0.4c0.2,0.2,0.3,0.3,0.4,0.5c0.1,0.2,0.2,0.4,0.2,0.7c0,0.3,0.1,0.6,0.1,0.9c0,0.4,0,0.8-0.1,1.1
			c-0.1,0.3-0.2,0.6-0.4,0.9c-0.2,0.2-0.4,0.4-0.7,0.6c-0.3,0.1-0.7,0.2-1.1,0.2c-0.3,0-0.6-0.1-0.9-0.2s-0.5-0.3-0.7-0.5
			c-0.2-0.2-0.4-0.4-0.5-0.7c-0.1-0.3-0.2-0.6-0.2-0.9v-0.5h1.3v0.4c0,0.2,0.1,0.5,0.2,0.7c0.1,0.2,0.4,0.3,0.7,0.3
			c0.2,0,0.4,0,0.5-0.1c0.1-0.1,0.2-0.2,0.3-0.3s0.1-0.3,0.1-0.4c0-0.2,0-0.4,0-0.6c0-0.2,0-0.4,0-0.6c0-0.2-0.1-0.3-0.1-0.4
			C26,99.1,26,99.1,25.9,99s-0.2-0.1-0.4-0.2l-0.9-0.4c-0.6-0.2-1-0.5-1.2-0.9c-0.2-0.4-0.3-0.9-0.3-1.4c0-0.3,0-0.7,0.1-1
			c0.1-0.3,0.2-0.6,0.4-0.8c0.2-0.2,0.4-0.4,0.7-0.5c0.3-0.1,0.6-0.2,1-0.2c0.3,0,0.6,0.1,0.9,0.2c0.3,0.1,0.5,0.3,0.7,0.5
			c0.4,0.4,0.6,0.9,0.6,1.4V96.2z"/>
	</g>
	<g class="st0">
		<path class="st1" d="M103.5,104.1v-10h2.1c0.8,0,1.4,0.2,1.9,0.7s0.6,1.1,0.6,1.9v4.7c0,0.9-0.2,1.6-0.7,2.1
			c-0.5,0.4-1.1,0.7-2,0.7H103.5z M104.9,95.4v7.3h0.7c0.4,0,0.7-0.1,0.9-0.3c0.2-0.2,0.3-0.5,0.3-0.9v-4.8c0-0.4-0.1-0.7-0.2-0.9
			c-0.2-0.2-0.4-0.3-0.9-0.3H104.9z"/>
		<path class="st1" d="M109.5,104.1v-10h4.3v1.3h-2.8v2.9h2.5v1.3h-2.5v2.9h2.8v1.4H109.5z"/>
	</g>
	<g class="st0">
		<path class="st1" d="M33.3,103.1V78.1h10.6v3.4h-7.1v7.6H43v3.4h-6.2v10.6H33.3z"/>
		<path class="st1" d="M46.3,103.1V78.1h3.6v24.9H46.3z"/>
		<path class="st1" d="M53.4,103.1V78.1h3.6v21.3H64v3.6H53.4z"/>
		<path class="st1" d="M66.3,103.1V78.1h3.4l4.6,13.2h0.1L79,78.1h3.5v24.9h-3.6V87.9h-0.1l-3.5,10.7h-1.8L70,87.9h-0.1v15.2H66.3z"
			/>
		<path class="st1" d="M97.3,85.3h-3.6v-0.8c0-0.8-0.2-1.5-0.6-2.1c-0.4-0.6-1-0.9-1.9-0.9c-0.5,0-0.9,0.1-1.2,0.3
			c-0.3,0.2-0.5,0.4-0.7,0.7c-0.2,0.3-0.3,0.6-0.4,1c-0.1,0.4-0.1,0.8-0.1,1.2c0,0.5,0,0.9,0.1,1.2c0,0.3,0.1,0.6,0.3,0.9
			c0.1,0.3,0.3,0.5,0.6,0.7c0.3,0.2,0.6,0.4,1.1,0.6l2.7,1.1c0.8,0.3,1.4,0.7,1.9,1.1s0.9,0.9,1.2,1.4c0.3,0.6,0.4,1.2,0.5,1.9
			c0.1,0.7,0.1,1.5,0.1,2.4c0,1.1-0.1,2-0.3,2.9c-0.2,0.9-0.5,1.7-1,2.3c-0.5,0.7-1.1,1.2-1.9,1.5c-0.8,0.4-1.8,0.6-2.9,0.6
			c-0.9,0-1.7-0.2-2.4-0.5c-0.7-0.3-1.4-0.7-1.9-1.3c-0.5-0.5-1-1.2-1.3-1.9c-0.3-0.7-0.5-1.5-0.5-2.3V96h3.6v1.1
			c0,0.7,0.2,1.2,0.6,1.8s1,0.8,1.9,0.8c0.6,0,1.1-0.1,1.4-0.3c0.3-0.2,0.6-0.4,0.8-0.8c0.2-0.3,0.3-0.7,0.3-1.2s0.1-1,0.1-1.5
			c0-0.7,0-1.2-0.1-1.6s-0.1-0.8-0.3-1c-0.2-0.3-0.4-0.5-0.6-0.6c-0.3-0.2-0.6-0.3-1.1-0.5l-2.6-1.1c-1.5-0.6-2.6-1.5-3.1-2.5
			c-0.5-1-0.8-2.3-0.8-3.9c0-0.9,0.1-1.8,0.4-2.7s0.6-1.6,1.2-2.2c0.5-0.6,1.1-1.1,1.9-1.5c0.8-0.4,1.7-0.5,2.7-0.5
			c0.9,0,1.7,0.2,2.4,0.5c0.7,0.3,1.4,0.8,1.9,1.3c1.1,1.1,1.6,2.4,1.6,3.8V85.3z"/>
	</g>
	<g id="Groupe_2" transform="translate(0)">
		<g id="Groupe_1" transform="translate(0)">
			<g id="Tracé_1">
				<path class="st3" d="M18.9,31.1c0,0,3.6-6.7,7.3-8.1s11-2.4,11-2.4l0,0c0,0-3.9,7.2-7.1,8.6C26.5,30.6,22.7,31.2,18.9,31.1z"/>
			</g>
			<g id="Tracé_2">
				<path class="st3" d="M39.5,37.6c0,0-5.2-5.8-9.1-6.4c-3.8-0.3-7.6-0.3-11.4-0.1l0,0c0,0,5.7,6.3,9.2,6.9
					C31.9,38.6,35.8,38.4,39.5,37.6z"/>
			</g>
			<g id="Tracé_3">
				<path class="st3" d="M42.6,28.7L42.6,28.7c0,0,3.1-8.5,7.2-10.6c4.1-2.1,12.6-4.3,12.6-4.3l0,0c0,0-3.4,9.1-6.9,11.1
					S47.5,28,42.6,28.7z"/>
			</g>
			<g id="Tracé_4">
				<path class="st3" d="M67.7,21.5c0,0,3.3-7.6,7.1-9.3s11.7-3.3,11.7-3.3l0,0c0,0-3.6,8.1-7,9.8C75.8,20.4,71.8,21.3,67.7,21.5z"
					/>
			</g>
			<g id="Tracé_5">
				<path class="st3" d="M93.2,14.1L93.2,14.1c0,0,3.4-8.3,7.4-10.3C104.7,2,113.1,0,113.1,0l0,0c0,0-3.6,8.9-7.2,10.8
					C101.9,12.7,97.6,13.9,93.2,14.1z"/>
			</g>
			<g id="Tracé_6">
				<path class="st3" d="M66.8,38.7L66.8,38.7c0,0-6-7.2-10.6-8c-4.7-0.8-13.6-0.5-13.6-0.5l0,0c0,0,6.5,7.7,10.6,8.6
					C57.7,39.6,62.3,39.5,66.8,38.7z"/>
			</g>
			<g id="Tracé_7">
				<path class="st3" d="M92.7,36.7L92.7,36.7c0,0-5.7-6.6-10.1-7.2c-4.4-0.6-12.7-0.2-12.7-0.2s6.2,7,10.1,7.8
					C84.2,37.7,88.5,37.6,92.7,36.7z"/>
			</g>
			<g id="Tracé_8">
				<path class="st3" d="M118.4,34.3L118.4,34.3c0,0-5.9-6.5-10.3-7c-4.4-0.6-12.7,0.1-12.7,0s6.4,6.9,10.3,7.6
					C109.9,35.5,114.3,35.3,118.4,34.3z"/>
			</g>
			<g id="Tracé_9">
				<path class="st3" d="M21.8,31.8c-6.8,0.6-13.7,1.2-20.6,1.8c-0.6,0.1-1.1-0.3-1.2-0.9l0,0c0-0.5,0.4-1,1-1c0,0,0,0,0,0
					c6.9-0.5,13.7-1.1,20.6-1.7c0.6-0.1,1.1,0.3,1.2,0.9l0,0C22.7,31.3,22.3,31.8,21.8,31.8C21.8,31.8,21.8,31.8,21.8,31.8z"/>
			</g>
		</g>
	</g>
</g>
</svg>
