<svg id="location-on-map" xmlns="http://www.w3.org/2000/svg" width="50.484" height="44.702" viewBox="0 0 50.484 44.702">
  <path id="Tracé_16" data-name="Tracé 16" d="M50.42,59.551l-5.233-18.34a1.694,1.694,0,0,0-1.629-1.229H31.523c2.414-3.259,4.765-7.553,4.765-11.925a11.045,11.045,0,1,0-22.09,0c0,4.372,2.35,8.666,4.765,11.925H6.928A1.694,1.694,0,0,0,5.3,41.211L.066,59.551A1.694,1.694,0,0,0,1.695,61.71h47.1a1.694,1.694,0,0,0,1.629-2.159ZM25.243,20.4A7.668,7.668,0,0,1,32.9,28.057c0,5.669-5.291,11.637-7.657,14.024-2.367-2.386-7.657-8.355-7.657-14.024A7.668,7.668,0,0,1,25.243,20.4ZM21.778,43.37c1.27,1.373,2.223,2.222,2.345,2.33a1.695,1.695,0,0,0,2.239,0c.122-.108,1.075-.956,2.345-2.33H42.28l.471,1.65L36.2,50.481,7.658,45.292l.549-1.922ZM12.961,58.322V49.7l19.844,3.608-6.018,5.014ZM6.724,48.566l2.849.518v9.239H3.94ZM32.08,58.322l11.687-9.739,2.779,9.739Z" transform="translate(-0.001 -17.008)" fill="#121a47"/>
  <path id="Tracé_17" data-name="Tracé 17" d="M130.8,59.64a4.558,4.558,0,1,0-4.557,4.581A4.574,4.574,0,0,0,130.8,59.64Zm-5.727,0a1.17,1.17,0,1,1,1.17,1.193A1.183,1.183,0,0,1,125.075,59.64Z" transform="translate(-101.003 -48.591)" fill="#121a47"/>
</svg>
